<svg width="28" height="28" viewBox="0 0 28 28" fill="none" xmlns="http://www.w3.org/2000/svg">
<path d="M16.9167 4.66675H11.0834L8.16671 8.16675H4.66671C4.04787 8.16675 3.45438 8.41258 3.01679 8.85017C2.57921 9.28775 2.33337 9.88124 2.33337 10.5001V21.0001C2.33337 21.6189 2.57921 22.2124 3.01679 22.65C3.45438 23.0876 4.04787 23.3334 4.66671 23.3334H23.3334C23.9522 23.3334 24.5457 23.0876 24.9833 22.65C25.4209 22.2124 25.6667 21.6189 25.6667 21.0001V10.5001C25.6667 9.88124 25.4209 9.28775 24.9833 8.85017C24.5457 8.41258 23.9522 8.16675 23.3334 8.16675H19.8334L16.9167 4.66675Z" stroke="#18181B" stroke-opacity="0.5" stroke-width="1.5" stroke-linecap="round" stroke-linejoin="round"/>
<path d="M14 18.6667C15.933 18.6667 17.5 17.0997 17.5 15.1667C17.5 13.2338 15.933 11.6667 14 11.6667C12.067 11.6667 10.5 13.2338 10.5 15.1667C10.5 17.0997 12.067 18.6667 14 18.6667Z" stroke="#18181B" stroke-opacity="0.5" stroke-width="1.5" stroke-linecap="round" stroke-linejoin="round"/>
</svg>
